<?xml version="1.0" encoding="UTF-8" standalone="no"?>
<!DOCTYPE svg PUBLIC "-//W3C//DTD SVG 1.1//EN"
 "http://www.w3.org/Graphics/SVG/1.1/DTD/svg11.dtd">
<!-- Generated by graphviz version 2.43.0 (0)
 -->
<!-- Title: %3 Pages: 1 -->
<svg width="221pt" height="391pt"
 viewBox="0.00 0.00 221.00 391.00" xmlns="http://www.w3.org/2000/svg" xmlns:xlink="http://www.w3.org/1999/xlink">
<g id="graph0" class="graph" transform="scale(1 1) rotate(0) translate(4 387)">
<title>%3</title>
<polygon fill="white" stroke="transparent" points="-4,4 -4,-387 217,-387 217,4 -4,4"/>
<!-- 140381635514912 -->
<g id="node1" class="node">
<title>140381635514912</title>
<polygon fill="#caff70" stroke="black" points="132.5,-31 78.5,-31 78.5,0 132.5,0 132.5,-31"/>
<text text-anchor="middle" x="105.5" y="-7" font-family="monospace" font-size="10.00"> ()</text>
</g>
<!-- 140381644801552 -->
<g id="node2" class="node">
<title>140381644801552</title>
<polygon fill="lightgrey" stroke="black" points="162,-86 49,-86 49,-67 162,-67 162,-86"/>
<text text-anchor="middle" x="105.5" y="-74" font-family="monospace" font-size="10.00">NllLossBackward0</text>
</g>
<!-- 140381644801552&#45;&gt;140381635514912 -->
<g id="edge8" class="edge">
<title>140381644801552&#45;&gt;140381635514912</title>
<path fill="none" stroke="black" d="M105.5,-66.79C105.5,-60.07 105.5,-50.4 105.5,-41.34"/>
<polygon fill="black" stroke="black" points="109,-41.19 105.5,-31.19 102,-41.19 109,-41.19"/>
</g>
<!-- 140381811642576 -->
<g id="node3" class="node">
<title>140381811642576</title>
<polygon fill="lightgrey" stroke="black" points="171,-141 40,-141 40,-122 171,-122 171,-141"/>
<text text-anchor="middle" x="105.5" y="-129" font-family="monospace" font-size="10.00">LogSoftmaxBackward0</text>
</g>
<!-- 140381811642576&#45;&gt;140381644801552 -->
<g id="edge1" class="edge">
<title>140381811642576&#45;&gt;140381644801552</title>
<path fill="none" stroke="black" d="M105.5,-121.75C105.5,-114.8 105.5,-104.85 105.5,-96.13"/>
<polygon fill="black" stroke="black" points="109,-96.09 105.5,-86.09 102,-96.09 109,-96.09"/>
</g>
<!-- 140381811643872 -->
<g id="node4" class="node">
<title>140381811643872</title>
<polygon fill="lightgrey" stroke="black" points="156,-196 55,-196 55,-177 156,-177 156,-196"/>
<text text-anchor="middle" x="105.5" y="-184" font-family="monospace" font-size="10.00">AddmmBackward0</text>
</g>
<!-- 140381811643872&#45;&gt;140381811642576 -->
<g id="edge2" class="edge">
<title>140381811643872&#45;&gt;140381811642576</title>
<path fill="none" stroke="black" d="M105.5,-176.75C105.5,-169.8 105.5,-159.85 105.5,-151.13"/>
<polygon fill="black" stroke="black" points="109,-151.09 105.5,-141.09 102,-151.09 109,-151.09"/>
</g>
<!-- 140381811644112 -->
<g id="node5" class="node">
<title>140381811644112</title>
<polygon fill="lightgrey" stroke="black" points="101,-251 0,-251 0,-232 101,-232 101,-251"/>
<text text-anchor="middle" x="50.5" y="-239" font-family="monospace" font-size="10.00">AccumulateGrad</text>
</g>
<!-- 140381811644112&#45;&gt;140381811643872 -->
<g id="edge3" class="edge">
<title>140381811644112&#45;&gt;140381811643872</title>
<path fill="none" stroke="black" d="M59.58,-231.75C67.59,-224.03 79.46,-212.6 89.12,-203.28"/>
<polygon fill="black" stroke="black" points="91.81,-205.55 96.59,-196.09 86.96,-200.51 91.81,-205.55"/>
</g>
<!-- 140381635517072 -->
<g id="node6" class="node">
<title>140381635517072</title>
<polygon fill="lightblue" stroke="black" points="94,-317 5,-317 5,-287 94,-287 94,-317"/>
<text text-anchor="middle" x="49.5" y="-305" font-family="monospace" font-size="10.00">linear1.bias</text>
<text text-anchor="middle" x="49.5" y="-294" font-family="monospace" font-size="10.00"> (10)</text>
</g>
<!-- 140381635517072&#45;&gt;140381811644112 -->
<g id="edge4" class="edge">
<title>140381635517072&#45;&gt;140381811644112</title>
<path fill="none" stroke="black" d="M49.74,-286.84C49.87,-279.21 50.03,-269.7 50.18,-261.45"/>
<polygon fill="black" stroke="black" points="53.68,-261.32 50.35,-251.27 46.68,-261.2 53.68,-261.32"/>
</g>
<!-- 140381811642672 -->
<g id="node7" class="node">
<title>140381811642672</title>
<polygon fill="lightgrey" stroke="black" points="199,-251 122,-251 122,-232 199,-232 199,-251"/>
<text text-anchor="middle" x="160.5" y="-239" font-family="monospace" font-size="10.00">TBackward0</text>
</g>
<!-- 140381811642672&#45;&gt;140381811643872 -->
<g id="edge5" class="edge">
<title>140381811642672&#45;&gt;140381811643872</title>
<path fill="none" stroke="black" d="M151.42,-231.75C143.41,-224.03 131.54,-212.6 121.88,-203.28"/>
<polygon fill="black" stroke="black" points="124.04,-200.51 114.41,-196.09 119.19,-205.55 124.04,-200.51"/>
</g>
<!-- 140381635397760 -->
<g id="node8" class="node">
<title>140381635397760</title>
<polygon fill="lightgrey" stroke="black" points="213,-311.5 112,-311.5 112,-292.5 213,-292.5 213,-311.5"/>
<text text-anchor="middle" x="162.5" y="-299.5" font-family="monospace" font-size="10.00">AccumulateGrad</text>
</g>
<!-- 140381635397760&#45;&gt;140381811642672 -->
<g id="edge6" class="edge">
<title>140381635397760&#45;&gt;140381811642672</title>
<path fill="none" stroke="black" d="M162.2,-292.37C161.93,-284.25 161.5,-271.81 161.15,-261.39"/>
<polygon fill="black" stroke="black" points="164.64,-261.04 160.8,-251.17 157.64,-261.28 164.64,-261.04"/>
</g>
<!-- 140381635516912 -->
<g id="node9" class="node">
<title>140381635516912</title>
<polygon fill="lightblue" stroke="black" points="213,-383 112,-383 112,-353 213,-353 213,-383"/>
<text text-anchor="middle" x="162.5" y="-371" font-family="monospace" font-size="10.00">linear1.weight</text>
<text text-anchor="middle" x="162.5" y="-360" font-family="monospace" font-size="10.00"> (10, 3072)</text>
</g>
<!-- 140381635516912&#45;&gt;140381635397760 -->
<g id="edge7" class="edge">
<title>140381635516912&#45;&gt;140381635397760</title>
<path fill="none" stroke="black" d="M162.5,-352.8C162.5,-343.7 162.5,-331.79 162.5,-321.9"/>
<polygon fill="black" stroke="black" points="166,-321.84 162.5,-311.84 159,-321.84 166,-321.84"/>
</g>
</g>
</svg>
